<?xml version="1.0" encoding="utf-8"?>
<!-- Generator: Adobe Illustrator 26.0.1, SVG Export Plug-In . SVG Version: 6.00 Build 0)  -->
<svg version="1.1" id="Ebene_1" xmlns="http://www.w3.org/2000/svg" xmlns:xlink="http://www.w3.org/1999/xlink" x="0px" y="0px"
	 viewBox="0 0 603.3 87.9" style="enable-background:new 0 0 603.3 87.9;" xml:space="preserve">
<style type="text/css">
	.st0{fill:#AC3229;}
</style>
<path class="st0" d="M306.2,32.7c0,11.2-0.3,12.2-16.1,12.2c-11.2,0-12.3,0-12.3,0V21.4c1.4,0,4.4,0.1,8.1,0.1
	C302.2,21.5,306.1,21.4,306.2,32.7 M320.3,30c-0.6-13.1-9.4-23.4-28.2-23.4l-26.8-0.1c-2.2,0-4,1.8-4,4v61.2c0,2.2,1.8,4,4,4h8.2
	c2.2,0,4-1.8,4-4V58.1l0.2,0h14.3C310.9,58.1,321.2,48.6,320.3,30"/>
<path class="st0" d="M143.5,44.1c-0.3-2-2.9-9.5-13.4-9.8c-6.8-0.2-29.9,1.1-32.6-1c-1.5-1.2-1.3-1.4-1.4-5.3
	c-0.1-3.4-0.6-6,2.2-6.9c1.5-0.4,34.5-0.1,40.9,0h0h0h0.1c0,0,0,0,0,0c2,0,3.7-1.3,3.7-3.3v-7.7c0-1.9-1.7-3.5-3.8-3.5l-28.9,0
	c-19,0-28.3,1.8-28.8,18.9c-0.5,20.2,3.3,23.7,28.2,23.4l12.8-0.2c4.1-0.2,7,0.6,7.1,4.5c0,3.3,0.3,5.5-0.9,6.6
	c-1.5,1.4-6.8,1.1-15.4,1.1c-4.9,0-24.8-0.1-27.7-0.1c-0.2,0-0.3,0-0.5,0c-2.1,0-3.7,2.6-3.7,4.7v6.3c0,2.1,1.7,3.6,3.7,3.6
	c0.2,0,0.4,0,0.6-0.1h29.6c9.6-0.1,20.2-0.4,25.1-3.9C146.2,67.3,144.4,49.9,143.5,44.1"/>
<path class="st0" d="M54.4,21.8v22.9H31.5c5-10.1,9.5-19.3,10-20.1c0.5-0.9,1.9-2.5,4-2.8C47.1,21.6,50.9,21.7,54.4,21.8 M70.6,71.2
	L70.6,71.2L70.6,71.2v-0.1v0v0v0v0v0v0v0v0v0v0v0v0v0v0V11.8v0v0v0v0v0v0v0v0v0v0v0v0v0v0v0v0c0-1.2-0.4-2.3-1.3-3.1
	c-0.8-0.9-1.9-1.3-3.1-1.3H42.4c-6.8-0.2-9.5,3.9-11,6.6C29.7,16.2,2.8,69,2,73.2c0.2,1.7,1.4,2.3,2.8,2.4C6,75.6,15,75.5,15,75.5
	c1.8-0.2,2-1,2.7-2.6c0.1-0.2,3.3-6.8,7.3-15.1h29.3v6.8l0.1,7.4c0.2,0.9,0.6,1.6,1.2,2.2c0.9,0.9,1.9,1.3,3.1,1.3h7.4
	c1.2,0,2.3-0.4,3.1-1.3C70.2,73.5,70.6,72.4,70.6,71.2"/>
<path class="st0" d="M386.4,17.1v-6.6c0-2.1-1.7-3.8-3.8-3.8h-55.4c-2.1,0-3.8,1.7-3.8,3.8v6.6c0,2.1,1.7,3.8,3.8,3.8h13.8v51
	c0,2.1,1.7,3.8,3.8,3.8h8.6c2.1,0,3.8-1.7,3.8-3.8v-51h25.4C384.7,20.9,386.4,19.2,386.4,17.1"/>
<path class="st0" d="M249.4,71.8V70V36.2v-5.8c0-13.3-10.8-24.1-24.1-24.1H216l0,0h-9.4c-4.2-0.1-6.8,1.3-8.6,3.1
	c-3.5-2-7.6-3.1-11.9-3.1h-18.7l0,0h-8.6h0h-0.3l0,0c-2,0.1-3.6,1.8-3.6,3.8v61.6c0,2.1,1.7,3.8,3.8,3.8h8.6c2.1,0,3.8-1.7,3.8-3.8
	V21.2h15.6c5.3,0,9.2,3.9,9.2,9.2v5.8V70v1.8c0,2.1,1.7,3.8,3.8,3.8h6.5c2.1,0,3.8-1.7,3.8-3.8V70V36.2v-5.8c0-3.2-0.6-6.3-1.8-9.1
	c1.8-0.1,3.9-0.1,5.9-0.1h4.3c0,0,0,0,0,0l0,0h7.4c5.3,0,9.2,3.9,9.2,9.2v5.8V70v1.8c0,2.1,1.7,3.8,3.8,3.8h6.5
	C247.7,75.6,249.4,73.9,249.4,71.8"/>
<path d="M422,49.3v10c-0.5-1-1.9-2.3-5.1-2.3c-5,0-8.1,4.1-8.1,9.7l0,0c0,5.5,2.9,9.3,7.5,9.3c3,0,4.8-1.1,5.7-3
	c0,0.7,0.1,2.1,0.2,2.6h3c0-1.7,0-3.4,0-5.1V49.3H422L422,49.3z M417.2,59.6c4.1,0,4.9,2.5,4.9,6.6l0,0c0,4-0.9,7.1-5.2,7.1
	c-2.8,0-4.9-2.4-4.9-6.7l0,0C412,62.1,414,59.6,417.2,59.6L417.2,59.6z M430.4,75.5h3.1V57.4h-3.1V75.5L430.4,75.5z M430.4,53.2h3.1
	v-3.9h-3.1V53.2L430.4,53.2z M453.8,62.6c0-1.7,0-4.2,0.1-5.2h-3c0,0.4-0.1,1.6-0.1,2.4c-0.4-1.2-1.9-2.8-5.3-2.8
	c-4.4,0-7.8,3.6-7.8,9.5l0,0c0,5.3,3,8.9,7.5,8.9c3,0,4.7-1.1,5.7-3.2v1.5c0,4.2-1,6.8-5.1,6.8c-2.3,0-3.9-1.1-4.4-3l0,0H438l0,0
	c0.3,2.5,2,5.5,7.5,5.5c5.9,0,8.3-3.3,8.3-9.1V62.6L453.8,62.6z M445.9,59.6c3.9,0,4.9,2.4,4.9,6.5l0,0c0,4-1.1,6.6-5,6.6
	c-3,0-4.9-2.6-4.9-6.4l0,0C440.9,62.4,442.6,59.6,445.9,59.6L445.9,59.6z M459.1,75.5h3.1V57.4h-3.1V75.5L459.1,75.5z M459.1,53.2
	h3.1v-3.9h-3.1V53.2L459.1,53.2z M465.4,59.9h3.1v11.3c0,3,1.2,4.5,4.1,4.5c0.9,0,1.9,0,2.7-0.3V73c-0.5,0.1-1.1,0.2-1.6,0.2
	c-1.6,0-2.1-0.9-2.1-2.7V59.9h4v-2.5h-4V52h-3.1v5.3h-3.1V59.9L465.4,59.9z M492.5,62.9c0-4.1-2.4-5.9-6.9-5.9c-5.2,0-6.7,2.9-7,5.4
	l0,0h3l0,0c0.3-1.4,0.8-2.9,3.9-2.9c3.4,0,3.9,1.9,3.9,3.5v1.5c-0.7,0-1.8,0-3.1,0c-5.4,0-8.5,1.8-8.5,5.9l0,0
	c0,2.8,1.8,5.5,6.1,5.5c3.5,0,5-1.6,5.6-2.8c0,1.1,0.2,2,0.3,2.4h3c-0.1-0.5-0.2-2.3-0.2-3.9V62.9L492.5,62.9z M489.5,67.2
	c0,3.3-0.6,6.2-4.9,6.2c-2.2,0-3.5-1.4-3.5-3.3l0,0c0-2.5,1.9-3.5,5.5-3.5c1,0,2.4,0,2.9,0V67.2L489.5,67.2z M501.1,75.5V49.3h-3.1
	v26.2H501.1L501.1,75.5z M513.6,57.4l5.2,18.1h3.5c2-7.2,3.7-12.7,4-14.7h0c0.4,2,2.1,8.1,3.9,14.7h3.4l5.6-18.1h-3.2
	c-2.8,10.2-3.5,12.9-4,14.8h0c-0.3-1.6-1.1-4.6-4-14.8H525c-2.6,9-3.8,13.5-4.2,15.2h0c-0.3-1.9-1.6-6.7-3.8-15.2H513.6L513.6,57.4z
	 M549.7,56.9c-5.5,0-8.5,4.2-8.5,9.5l0,0c0,5.4,3.1,9.4,8.3,9.4c5.5,0,8.5-4.3,8.5-9.5l0,0C558,60.7,554.7,56.9,549.7,56.9
	L549.7,56.9z M549.5,59.6c3.4,0,5.2,2.8,5.2,6.9l0,0c0,4.1-1.9,6.9-5.2,6.9c-3.3,0-5.2-2.9-5.2-6.9l0,0
	C544.4,62.3,546.1,59.6,549.5,59.6L549.5,59.6z M562,75.5h3.1v-8.8c0-4.6,2.4-6.5,6.1-6.6v-3.1c-3,0.1-5.1,1.7-6.1,4.1
	c0-1.8,0-3.2-0.1-3.7H562c0,1,0,2.4,0,4.9V75.5L562,75.5z M577.7,75.5V49.3h-3.1v26.2H577.7L577.7,75.5z M595,49.3v10
	c-0.5-1-1.9-2.3-5.1-2.3c-5,0-8.1,4.1-8.1,9.7l0,0c0,5.5,2.9,9.3,7.5,9.3c3,0,4.8-1.1,5.7-3c0,0.7,0.1,2.1,0.2,2.6h3
	c0-1.7,0-3.4,0-5.1V49.3H595L595,49.3z M590.2,59.6c4.1,0,4.9,2.5,4.9,6.6l0,0c0,4-0.9,7.1-5.2,7.1c-2.8,0-4.9-2.4-4.9-6.7l0,0
	C585,62.1,587,59.6,590.2,59.6L590.2,59.6z M411.9,24.2L411.9,24.2c0,3.7,1.9,6.3,4.9,6.3c2.9,0,3.8-1.5,4.4-2.8l0,0h3.1l0,0
	c-0.7,2.3-2.7,5.4-7.6,5.4c-5.7,0-8-4.6-8-9.3l0,0c0-5.4,2.7-9.7,8.2-9.7c5.8,0,7.7,4.7,7.7,8.5c0,0.5,0,1,0,1.5H411.9L411.9,24.2z
	 M421.6,22L421.6,22c0-3-1.5-5.4-4.6-5.4c-3.2,0-4.6,2.2-4.9,5.4l0,0H421.6L421.6,22z M428.8,19.1c0-1.6,0-3.2,0-4.6h3
	c0.1,0.5,0.1,2.4,0.1,3c0.7-1.6,2.2-3.4,5.7-3.4c3.4,0,6,2.1,6,6.9v11.6h-3.1V21.4c0-2.7-1.1-4.6-3.8-4.6c-3.4,0-4.8,2.6-4.8,6.2
	v9.6h-3.1V19.1L428.8,19.1z M462.2,28.7c0,1.6,0.1,3.4,0.2,3.9h-3c-0.1-0.4-0.2-1.3-0.3-2.4c-0.6,1.2-2.1,2.8-5.6,2.8
	c-4.3,0-6.1-2.8-6.1-5.5l0,0c0-4,3.2-5.9,8.5-5.9c1.3,0,2.4,0,3.1,0v-1.5c0-1.6-0.5-3.5-3.9-3.5c-3,0-3.5,1.5-3.9,2.9l0,0h-3l0,0
	c0.2-2.5,1.8-5.4,7-5.4c4.4,0,6.9,1.8,6.9,5.9V28.7L462.2,28.7z M459.2,23.8c-0.6,0-2,0-2.9,0c-3.6,0-5.5,1-5.5,3.5l0,0
	c0,1.9,1.3,3.3,3.5,3.3c4.4,0,4.9-2.9,4.9-6.2V23.8L459.2,23.8z M467.6,6.5h3.1v10.7c0.8-1.5,2.5-3,5.8-3c4.5,0,7.4,3.7,7.4,9.1l0,0
	c0,5.5-2.8,9.8-7.9,9.8c-2.9,0-4.4-1.1-5.3-2.8c0,0.9-0.1,1.9-0.1,2.4h-3c0-2,0-4.1,0-6.1V6.5L467.6,6.5z M480.7,23.3L480.7,23.3
	c0-3.9-1.8-6.5-4.9-6.5c-3.8,0-5.2,2.6-5.2,6.9l0,0c0,3.8,1.2,6.8,5,6.8C478.8,30.4,480.7,27.7,480.7,23.3L480.7,23.3z M488,32.7
	V6.5h3.1v26.2H488L488,32.7z M496.4,14.6h3.1v18.1h-3.1V14.6L496.4,14.6z M496.4,6.5h3.1v3.9h-3.1V6.5L496.4,6.5z M504.9,19.1
	c0-1.6,0-3.2,0-4.6h3c0.1,0.5,0.1,2.4,0.1,3c0.7-1.6,2.2-3.4,5.7-3.4c3.4,0,6,2.1,6,6.9v11.6h-3.1V21.4c0-2.7-1.1-4.6-3.8-4.6
	c-3.4,0-4.8,2.6-4.8,6.2v9.6h-3.1V19.1L504.9,19.1z M540,31c0,5.8-2.4,9.1-8.3,9.1c-5.5,0-7.2-3.1-7.5-5.5l0,0h3.2l0,0
	c0.5,2,2.1,3,4.4,3c4.1,0,5.1-2.6,5.1-6.8v-1.5c-1,2-2.6,3.2-5.7,3.2c-4.5,0-7.5-3.6-7.5-8.9l0,0c0-5.9,3.4-9.5,7.8-9.5
	c3.4,0,4.9,1.6,5.3,2.8c0-0.8,0.1-2,0.1-2.4h3c0,1-0.1,3.5-0.1,5.2V31L540,31z M527.1,23.5L527.1,23.5c0,3.8,2,6.4,4.9,6.4
	c3.9,0,5-2.6,5-6.6l0,0c0-4.1-1.1-6.5-4.9-6.5C528.8,16.8,527.1,19.6,527.1,23.5L527.1,23.5z M552,14.6h3.1V9.2h3.1v5.3h4v2.5h-4
	v10.6c0,1.8,0.4,2.7,2.1,2.7c0.4,0,1.1,0,1.6-0.2v2.4c-0.8,0.3-1.8,0.3-2.7,0.3c-2.8,0-4.1-1.5-4.1-4.5V17.1H552V14.6L552,14.6z
	 M568.7,6.5v10.8c0.9-1.6,2.6-3.1,5.6-3.1c2.9,0,6.1,1.6,6.1,7v11.5h-3.1v-11c0-3.1-1.3-4.8-3.9-4.8c-3.3,0-4.7,2.2-4.7,5.9v9.9
	h-3.1V6.5H568.7L568.7,6.5z M587.6,24.2L587.6,24.2c0,3.7,1.9,6.3,4.9,6.3c2.9,0,3.8-1.5,4.4-2.8l0,0h3.1l0,0
	c-0.7,2.3-2.7,5.4-7.6,5.4c-5.7,0-8-4.6-8-9.3l0,0c0-5.4,2.7-9.7,8.2-9.7c5.8,0,7.7,4.7,7.7,8.5c0,0.5,0,1,0,1.5H587.6L587.6,24.2z
	 M597.3,22L597.3,22c0-3-1.5-5.4-4.6-5.4c-3.2,0-4.6,2.2-4.9,5.4l0,0H597.3L597.3,22z"/>
</svg>
